#!OML:ASF I:\Random Stuff\random\construction\7_22_03\Session 2\subj1.ASF
:FULLY-SPECIFIED
:DEGREES
896
root 7.3809 17.6092 -11.9109 7.56167 -14.2795 -4.06719
lowerback 3.58848 -1.63343 2.01074
upperback -0.0877015 -2.03973 2.78272
thorax -2.07046 -1.02788 1.84073
lowerneck -16.0264 -11.0101 -11.3137
upperneck 32.9845 -17.9322 12.4014
head 17.0136 -7.45607 3.65565
rclavicle -9.24846e-014 -8.74653e-015
rhumerus -32.2786 -0.230731 -66.9817
rradius 76.0291
rwrist 17.8616
rhand -14.9566 15.5655
rfingers 7.12502
rthumb 11.2066 -14.1152
lclavicle -9.24846e-014 -8.74653e-015
lhumerus -34.0287 -14.4829 95.8341
lradius 46.4687
lwrist 23.1919
lhand -20.0945 56.0309
lfingers 7.12502
lthumb 6.2486 -274.081
rfemur -7.02549 15.946 24.2754
rtibia 6.2335
rfoot -12.5849 -47.0875
rtoes 27.1392
lfemur -14.7657 -9.1499 -12.2009
ltibia 25.8949
lfoot -17.201 12.8442
ltoes -25.1254
897
root 7.38158 17.6088 -11.8969 7.59654 -14.4118 -4.10729
lowerback 3.49398 -1.61161 2.05928
upperback -0.118326 -2.01105 2.80139
thorax -2.05045 -1.01404 1.82881
lowerneck -15.9657 -10.9007 -11.3949
upperneck 32.8679 -17.7988 12.599
head 16.9557 -7.3947 3.78835
rclavicle 1.05356e-014 -1.03368e-014
rhumerus -32.3327 -0.238245 -67.0684
rradius 76.0882
rwrist 18.1033
rhand -14.8456 15.8147
rfingers 7.12502
rthumb 11.3137 -13.8602
lclavicle 1.05356e-014 -1.03368e-014
lhumerus -34.0797 -14.5901 95.8732
lradius 46.523
lwrist 23.2905
lhand -20.166 56.2019
lfingers 7.12502
lthumb 6.17953 -273.908
rfemur -7.00977 16.0854 24.3059
rtibia 6.26008
rfoot -12.7144 -47.0996
rtoes 27.24
lfemur -14.6822 -9.22008 -12.186
ltibia 25.8723
lfoot -17.3064 13.0128
ltoes -24.8664
898
root 7.38294 17.6076 -11.8824 7.58101 -14.5829 -4.12126
lowerback 3.42223 -1.56863 2.0921
upperback -0.12651 -1.95506 2.8018
thorax -2.02059 -0.986415 1.80579
lowerneck -16.0295 -10.7491 -10.9811
upperneck 32.801 -17.5541 12.3114
head 16.7938 -7.2767 3.64586
rclavicle 5.01931e-014 -7.95139e-015
rhumerus -32.3862 -0.299094 -67.1664
rradius 76.0961
rwrist 18.1847
rhand -14.7216 16.0385
rfingers 7.12502
rthumb 11.4333 -13.6298
lclavicle 5.01931e-014 -7.95139e-015
lhumerus -34.1301 -14.703 95.892
lradius 46.5534
lwrist 23.2876
lhand -20.128 56.342
lfingers 7.12502
lthumb 6.21624 -273.769
rfemur -6.96374 16.2548 24.3063
rtibia 6.29576
rfoot -12.7746 -47.1149
rtoes 27.2027
lfemur -14.5289 -9.23657 -12.2316
ltibia 25.8419
lfoot -17.3409 13.2399
ltoes -25.4327
899
root 7.38548 17.6076 -11.8705 7.57408 -14.7509 -4.07556
lowerback 3.35119 -1.5341 2.05123
upperback -0.139919 -1.9131 2.80259
thorax -1.99378 -0.965042 1.82531
lowerneck -16.1791 -10.5981 -10.7788
upperneck 32.8576 -17.3088 12.1376
head 16.7643 -7.1633 3.58918
rclavicle 5.36719e-014 2.90226e-014
rhumerus -32.4062 -0.333567 -67.2596
rradius 76.1014
rwrist 18.246
rhand -14.7761 16.1011
rfingers 7.12502
rthumb 11.3807 -13.5701
lclavicle 5.36719e-014 2.90226e-014
lhumerus -34.1294 -14.709 95.8685
lradius 46.4785
lwrist 23.1654
lhand -20.0046 56.1072
lfingers 7.12502
lthumb 6.3354 -274.008
rfemur -6.94113 16.4139 24.2333
rtibia 6.30659
rfoot -12.8327 -47.0878
rtoes 27.2137
lfemur -14.4254 -9.2169 -12.3325
ltibia 25.8214
lfoot -17.4024 13.3908
ltoes -25.6366
900
root 7.38779 17.6079 -11.861 7.54769 -14.8962 -3.9952
lowerback 3.31887 -1.5161 1.97686
upperback -0.155638 -1.89314 2.78138
thorax -1.99039 -0.954412 1.84337
lowerneck -16.4352 -10.4321 -10.3899
upperneck 32.9725 -17.0488 11.826
head 16.7463 -7.03106 3.44123
rclavicle 1.00436e-013 -1.19271e-014
rhumerus -32.415 -0.380789 -67.3988
rradius 76.0246
rwrist 18.4697
rhand -15.0768 16.2265
rfingers 7.12502
rthumb 11.0906 -13.4604
lclavicle 1.00436e-013 -1.19271e-014
lhumerus -34.1122 -14.7084 95.8018
lradius 46.3585
lwrist 23.0958
lhand -19.8885 55.9241
lfingers 7.12502
lthumb 6.4475 -274.194
rfemur -6.86002 16.5454 24.1352
rtibia 6.23131
rfoot -12.9671 -47.0947
rtoes 27.7068
lfemur -14.339 -9.29151 -12.4478
ltibia 25.8276
lfoot -17.5625 13.5173
ltoes -24.7383
901
root 7.38995 17.6066 -11.8517 7.55214 -15.0177 -4.02988
lowerback 3.30557 -1.49647 2.03956
upperback -0.187121 -1.8642 2.76594
thorax -2.01832 -0.940745 1.79122
lowerneck -16.5666 -10.3026 -10.4342
upperneck 33.2099 -16.9159 11.9331
head 16.9016 -6.95764 3.53037
rclavicle -1.97791e-014 0
rhumerus -32.4404 -0.568707 -67.5511
rradius 75.9014
rwrist 18.8292
rhand -15.5354 16.2528
rfingers 7.12502
rthumb 10.6483 -13.4573
lclavicle -1.97791e-014 0
lhumerus -34.1149 -14.7457 95.7208
lradius 46.2614
lwrist 23.0621
lhand -19.7208 56.0433
lfingers 7.12502
lthumb 6.60931 -274.08
rfemur -6.78858 16.6701 24.1642
rtibia 6.17244
rfoot -13.0581 -47.1547
rtoes 28.1396
lfemur -14.2613 -9.36492 -12.4368
ltibia 25.8386
lfoot -17.7209 13.6634
ltoes -23.8794
902
root 7.39159 17.6051 -11.8415 7.5974 -15.1514 -4.14081
lowerback 3.27422 -1.45867 2.18073
upperback -0.226004 -1.80817 2.76605
thorax -2.046 -0.914401 1.70944
lowerneck -16.8459 -10.0772 -10.2108
upperneck 33.4403 -16.6187 11.8314
head 16.9987 -6.80175 3.51506
rclavicle -2.31087e-014 1.23246e-014
rhumerus -32.4692 -0.801166 -67.6516
rradius 75.7565
rwrist 18.9368
rhand -16.0125 16.3757
rfingers 7.12502
rthumb 10.1881 -13.3576
lclavicle -2.31087e-014 1.23246e-014
lhumerus -34.0839 -14.7654 95.6429
lradius 46.0915
lwrist 22.9881
lhand -19.6101 56.2105
lfingers 7.12502
lthumb 6.71622 -273.916
rfemur -6.73497 16.8177 24.2566
rtibia 6.07633
rfoot -12.8993 -47.2095
rtoes 27.9138
lfemur -14.2233 -9.27542 -12.3486
ltibia 25.8747
lfoot -17.7849 13.706
ltoes -23.8357
903
root 7.39244 17.6048 -11.8301 7.62493 -15.3231 -4.15853
lowerback 3.20716 -1.40785 2.20852
upperback -0.242856 -1.74164 2.76106
thorax -2.02754 -0.881511 1.68379
lowerneck -17.2427 -9.84764 -9.79188
upperneck 33.7116 -16.2842 11.4992
head 17.085 -6.62737 3.36888
rclavicle 7.15625e-015 1.23246e-014
rhumerus -32.4673 -0.953271 -67.7119
rradius 75.5937
rwrist 18.7705
rhand -16.3804 16.6958
rfingers 7.12502
rthumb 9.83312 -13.0546
lclavicle 7.15625e-015 1.23246e-014
lhumerus -34.0146 -14.772 95.6017
lradius 45.8904
lwrist 22.9703
lhand -19.7169 56.2387
lfingers 7.12502
lthumb 6.61308 -273.885
rfemur -6.62438 16.9886 24.2368
rtibia 5.8428
rfoot -12.5188 -47.2559
rtoes 27.3451
lfemur -14.1987 -9.28462 -12.3608
ltibia 25.955
lfoot -17.7661 13.8501
ltoes -24.1101
904
root 7.39386 17.6042 -11.8188 7.70818 -15.5111 -4.23702
lowerback 3.10588 -1.36758 2.286
upperback -0.264575 -1.68813 2.78736
thorax -1.99518 -0.855531 1.66241
lowerneck -17.4301 -9.71054 -9.37327
upperneck 33.8386 -16.081 11.1541
head 17.0663 -6.52266 3.18901
rclavicle 5.96354e-016 -2.26615e-014
rhumerus -32.4513 -1.0675 -67.7563
rradius 75.5048
rwrist 18.6743
rhand -16.4815 16.9219
rfingers 7.12502
rthumb 9.73564 -12.8331
lclavicle 5.96354e-016 -2.26615e-014
lhumerus -33.9836 -14.819 95.5739
lradius 45.7441
lwrist 23.0504
lhand -19.74 56.0397
lfingers 7.12502
lthumb 6.59079 -274.083
rfemur -6.61958 17.1902 24.2834
rtibia 5.75484
rfoot -12.3515 -47.267
rtoes 26.9853
lfemur -14.1923 -9.42103 -12.3021
ltibia 26
lfoot -17.7692 14.1503
ltoes -24.143
905
root 7.39313 17.6024 -11.8082 7.79884 -15.6822 -4.38087
lowerback 3.01958 -1.33572 2.40326
upperback -0.29071 -1.64354 2.82905
thorax -1.97628 -0.834427 1.63572
lowerneck -17.5937 -9.46853 -9.50582
upperneck 33.9926 -15.8071 11.4685
head 17.2064 -6.37794 3.41673
rclavicle -3.47873e-015 -1.11319e-014
rhumerus -32.5018 -1.14272 -67.7938
rradius 75.5537
rwrist 18.6592
rhand -16.5373 16.8468
rfingers 7.12502
rthumb 9.68178 -12.9107
lclavicle -3.47873e-015 -1.11319e-014
lhumerus -34.0137 -14.8652 95.5258
lradius 45.6296
lwrist 23.0954
lhand -19.7012 55.9703
lfingers 7.12502
lthumb 6.6283 -274.153
rfemur -6.68204 17.3884 24.4303
rtibia 5.85975
rfoot -12.4964 -47.25
rtoes 27.1223
lfemur -14.1656 -9.32291 -12.1742
ltibia 26.0066
lfoot -17.826 14.2429
ltoes -24.0194
906
root 7.3899 17.6022 -11.7929 7.73222 -15.8288 -4.25047
lowerback 2.94711 -1.30895 2.23698
upperback -0.288623 -1.61736 2.81271
thorax -1.92949 -0.819512 1.7086
lowerneck -17.6988 -9.24373 -9.44726
upperneck 33.9761 -15.5016 11.5609
head 17.1806 -6.23009 3.51626
rclavicle 1.83876e-014 -2.90226e-014
rhumerus -32.6158 -1.14614 -67.7903
rradius 75.7247
rwrist 18.6533
rhand -16.567 16.5761
rfingers 7.12502
rthumb 9.65311 -13.1827
lclavicle 1.83876e-014 -2.90226e-014
lhumerus -34.0449 -14.8167 95.4853
lradius 45.5024
lwrist 23.0621
lhand -19.85 56.1323
lfingers 7.12502
lthumb 6.48462 -273.987
rfemur -6.63162 17.5153 24.3085
rtibia 5.96803
rfoot -12.7091 -47.2208
rtoes 27.1775
lfemur -14.0268 -9.12211 -12.368
ltibia 26.0057
lfoot -17.877 14.2012
ltoes -24.3144
907
root 7.38986 17.6009 -11.7865 7.65622 -15.9251 -4.14812
lowerback 3.02511 -1.30776 2.08478
upperback -0.308369 -1.61699 2.83772
thorax -1.9886 -0.817825 1.82201
lowerneck -17.8354 -9.00955 -9.27384
upperneck 33.9704 -15.1584 11.5021
head 17.1281 -6.06898 3.53528
rclavicle -6.5748e-014 -1.35174e-014
rhumerus -32.7005 -1.07473 -67.7538
rradius 75.909
rwrist 18.7123
rhand -16.44 16.4287
rfingers 7.12502
rthumb 9.77562 -13.3244
lclavicle -6.5748e-014 -1.35174e-014
lhumerus -34.0437 -14.7487 95.4722
lradius 45.3625
lwrist 23.0738
lhand -20.0582 56.2373
lfingers 7.12502
lthumb 6.28359 -273.876
rfemur -6.60209 17.5936 24.2121
rtibia 6.06233
rfoot -13.105 -47.1146
rtoes 27.2851
lfemur -13.9265 -9.06522 -12.5095
ltibia 26.0016
lfoot -17.9245 14.2106
ltoes -24.6448
908
root 7.39116 17.5991 -11.7798 7.59104 -15.9766 -4.15591
lowerback 3.10871 -1.31648 2.11962
upperback -0.310998 -1.62366 2.84851
thorax -2.03882 -0.821614 1.81632
lowerneck -18.0434 -8.76032 -8.88491
upperneck 34.0133 -14.8193 11.3102
head 17.0803 -5.894 3.45538
rclavicle -3.9906e-014 -1.03368e-014
rhumerus -32.759 -1.01339 -67.7838
rradius 76.0114
rwrist 18.8316
rhand -16.438 16.2804
rfingers 7.12502
rthumb 9.77763 -13.4726
lclavicle -3.9906e-014 -1.03368e-014
lhumerus -34.041 -14.7609 95.4133
lradius 45.2358
lwrist 23.0034
lhand -20.0183 56.259
lfingers 7.12502
lthumb 6.3221 -273.855
rfemur -6.58915 17.6416 24.2381
rtibia 6.24376
rfoot -13.6177 -46.9662
rtoes 27.4169
lfemur -13.8003 -9.14763 -12.532
ltibia 25.9797
lfoot -18.0121 14.2716
ltoes -24.4294
